<mxfile host="www.draw.io" modified="2019-11-27T16:29:00.462Z" agent="Mozilla/5.0 (Macintosh; Intel Mac OS X 10_15_1) AppleWebKit/537.36 (KHTML, like Gecko) Chrome/78.0.3904.108 Safari/537.36" etag="gthF2HSWgHwz9rt7Cxvl" version="12.3.2" type="github" pages="1">
  <diagram id="nCRuIEf037rJsr7OWM87" name="ページ1">
    <mxGraphModel dx="737" dy="3740" grid="1" gridSize="10" guides="1" tooltips="1" connect="1" arrows="1" fold="1" page="1" pageScale="1" pageWidth="4681" pageHeight="3300" math="0" shadow="0">
      <root>
        <mxCell id="0"/>
        <mxCell id="1" parent="0"/>
        <mxCell id="BpQ6tRYuRvQ094wdzUnZ-1" value="ブール理論" style="rounded=0;whiteSpace=wrap;html=1;" vertex="1" parent="1">
          <mxGeometry x="160" y="320" width="160" height="40" as="geometry"/>
        </mxCell>
        <mxCell id="BpQ6tRYuRvQ094wdzUnZ-2" value="ブール演算" style="rounded=0;whiteSpace=wrap;html=1;" vertex="1" parent="1">
          <mxGeometry x="160" y="280" width="80" height="40" as="geometry"/>
        </mxCell>
        <mxCell id="BpQ6tRYuRvQ094wdzUnZ-3" value="順序論理" style="rounded=0;whiteSpace=wrap;html=1;" vertex="1" parent="1">
          <mxGeometry x="240" y="280" width="80" height="40" as="geometry"/>
        </mxCell>
        <mxCell id="BpQ6tRYuRvQ094wdzUnZ-4" value="ALU" style="rounded=0;whiteSpace=wrap;html=1;" vertex="1" parent="1">
          <mxGeometry x="160" y="240" width="60" height="40" as="geometry"/>
        </mxCell>
        <mxCell id="BpQ6tRYuRvQ094wdzUnZ-5" value="メモリ" style="rounded=0;whiteSpace=wrap;html=1;" vertex="1" parent="1">
          <mxGeometry x="220" y="240" width="100" height="40" as="geometry"/>
        </mxCell>
        <mxCell id="BpQ6tRYuRvQ094wdzUnZ-6" value="" style="endArrow=classic;startArrow=classic;html=1;" edge="1" parent="1">
          <mxGeometry width="50" height="50" relative="1" as="geometry">
            <mxPoint x="140" y="360" as="sourcePoint"/>
            <mxPoint x="140" y="160" as="targetPoint"/>
          </mxGeometry>
        </mxCell>
        <mxCell id="BpQ6tRYuRvQ094wdzUnZ-7" value="ハードウェア" style="text;html=1;align=center;verticalAlign=middle;resizable=0;points=[];;autosize=1;" vertex="1" parent="1">
          <mxGeometry x="50" y="250" width="90" height="20" as="geometry"/>
        </mxCell>
        <mxCell id="BpQ6tRYuRvQ094wdzUnZ-8" value="コンピュータアーキテクチャ" style="rounded=0;whiteSpace=wrap;html=1;" vertex="1" parent="1">
          <mxGeometry x="160" y="200" width="160" height="40" as="geometry"/>
        </mxCell>
        <mxCell id="BpQ6tRYuRvQ094wdzUnZ-9" value="機械語" style="rounded=0;whiteSpace=wrap;html=1;" vertex="1" parent="1">
          <mxGeometry x="160" y="160" width="160" height="40" as="geometry"/>
        </mxCell>
        <mxCell id="BpQ6tRYuRvQ094wdzUnZ-10" value="アセンブラ" style="rounded=1;whiteSpace=wrap;html=1;" vertex="1" parent="1">
          <mxGeometry x="160" y="120" width="160" height="40" as="geometry"/>
        </mxCell>
        <mxCell id="BpQ6tRYuRvQ094wdzUnZ-11" value="バーチャルマシン" style="rounded=1;whiteSpace=wrap;html=1;" vertex="1" parent="1">
          <mxGeometry x="160" y="80" width="160" height="40" as="geometry"/>
        </mxCell>
        <mxCell id="BpQ6tRYuRvQ094wdzUnZ-12" value="コンパイラ" style="rounded=1;whiteSpace=wrap;html=1;" vertex="1" parent="1">
          <mxGeometry x="160" y="40" width="160" height="40" as="geometry"/>
        </mxCell>
        <mxCell id="BpQ6tRYuRvQ094wdzUnZ-13" value="OS" style="rounded=1;whiteSpace=wrap;html=1;" vertex="1" parent="1">
          <mxGeometry x="160" width="160" height="40" as="geometry"/>
        </mxCell>
        <mxCell id="BpQ6tRYuRvQ094wdzUnZ-14" value="&lt;font style=&quot;font-size: 11px&quot;&gt;高水準言語/アプリケーション&lt;/font&gt;" style="rounded=1;whiteSpace=wrap;html=1;" vertex="1" parent="1">
          <mxGeometry x="160" y="-40" width="160" height="43" as="geometry"/>
        </mxCell>
        <mxCell id="BpQ6tRYuRvQ094wdzUnZ-15" value="" style="endArrow=classic;startArrow=classic;html=1;" edge="1" parent="1">
          <mxGeometry width="50" height="50" relative="1" as="geometry">
            <mxPoint x="140" y="160" as="sourcePoint"/>
            <mxPoint x="139.5" y="-40" as="targetPoint"/>
          </mxGeometry>
        </mxCell>
        <mxCell id="BpQ6tRYuRvQ094wdzUnZ-16" value="ソフトウェア" style="text;html=1;align=center;verticalAlign=middle;resizable=0;points=[];;autosize=1;" vertex="1" parent="1">
          <mxGeometry x="50" y="60" width="90" height="20" as="geometry"/>
        </mxCell>
      </root>
    </mxGraphModel>
  </diagram>
</mxfile>
